# xmcd
#
# Track frame offsets:
#	150
#	20335
#	41963
#	62665
#	77533
#	100925
#	119955
#	135353
#	156898
#	175873
#	195775
#	213775
#	230823
#	249450
#
# Disc length: 3580 seconds
#
# Revision: 2
# Processed by: cddbd v1.5.2PL0 Copyright (c) Steve Scherf et al.
# Submitted via: audiograbber 1.83.01
#
DISCID=b80dfa0e
DTITLE=José Augusto - O Melhor De
DYEAR=1900
DGENRE=Popular
TTITLE0=Sábado
TTITLE1=Fantasias
TTITLE2=Fui Eu
TTITLE3=Amar Você
TTITLE4=Não da Pra Te Esquecer
TTITLE5=O Que Você Quiser
TTITLE6=Coisinha Estupida (Somethin´Stupid)
TTITLE7=Chuvas de Verão
TTITLE8=Sonho Dourado
TTITLE9=Só Você
TTITLE10=De Igual Pra Igual
TTITLE11=Sei
TTITLE12=Sou Assim (C´est La Vie)
TTITLE13=Eu e Você
EXTD=Dados Por - Dayvison de Azevedo - Recife - PE\nWPP - 81 9-8690-4073\nFB - 
EXTD=https://www.facebook.com/profile.php?id=100006142608616\n\n\nProduzido pel
EXTD=a RCA BMG
EXTT0=
EXTT1=
EXTT2=
EXTT3=
EXTT4=
EXTT5=
EXTT6=
EXTT7=
EXTT8=
EXTT9=
EXTT10=
EXTT11=
EXTT12=
EXTT13=
PLAYORDER=
